<svg xmlns="http://www.w3.org/2000/svg" version="1.1" xmlns:xlink="http://www.w3.org/1999/xlink" xmlns:svgjs="http://svgjs.dev/svgjs" width="1440" height="560" preserveAspectRatio="none" viewBox="0 0 1440 560">
    <g mask="url(&quot;#SvgjsMask1055&quot;)" fill="none">
        <rect width="1440" height="560" x="0" y="0" fill="rgba(213, 253, 230, 1)"></rect>
        <path d="M0,585.189C121.334,619.478,265.836,646.816,370.495,576.501C475.14,506.195,485.921,358.586,518.537,236.808C546.394,132.798,554.222,28.863,545.92,-78.492C537.088,-192.699,554.765,-330.509,468.812,-406.228C381.895,-482.796,238.881,-403.569,130.501,-444.446C7.642,-490.784,-64.663,-685.566,-192.519,-655.659C-317.548,-626.413,-295.819,-426.108,-376.148,-325.934C-451.762,-231.64,-614.554,-209.815,-644.033,-92.598C-673.278,23.688,-591.755,142.165,-517.561,236.362C-452.798,318.586,-343.397,340.787,-256.604,399.284C-167.206,459.537,-103.744,555.871,0,585.189" fill="#b1fbd1"></path>
        <path d="M1440 1253.307C1569.19 1257.489 1694.9470000000001 1191.637 1788.833 1102.795 1875.038 1021.222 1877.061 889.7180000000001 1934.174 785.682 1997.583 670.178 2149.589 590.593 2142.244 459.033 2134.967 328.68399999999997 1996.375 249.32100000000003 1899.354 161.96699999999998 1812.999 84.21600000000001 1724.757 0.020999999999958163 1610.282-19.928999999999974 1500.615-39.041000000000054 1399.272 26.201000000000022 1292.05 56.127999999999986 1183.075 86.54399999999998 1062.703 85.50299999999999 975.271 157.31 880.694 234.985 797.918 344.58799999999997 791.981 466.829 786.138 587.128 889.959 678.915 944.726 786.184 996.624 887.8340000000001 1022.355 1002.363 1105.384 1080.672 1198.576 1168.567 1311.964 1249.163 1440 1253.307" fill="#f9fffb"></path>
    </g>
    <defs>
        <mask id="SvgjsMask1055">
            <rect width="1440" height="560" fill="#ffffff"></rect>
        </mask>
    </defs>
</svg>